<?xml version="1.0" encoding="UTF-8" standalone="no"?>
<!-- Created with Inkscape (http://www.inkscape.org/) -->

<svg
   version="1.1"
   id="svg1"
   width="500"
   height="500"
   viewBox="0 0 500 500"
   sodipodi:docname="favicon.svg"
   inkscape:version="1.3.2 (091e20e, 2023-11-25, custom)"
   xmlns:inkscape="http://www.inkscape.org/namespaces/inkscape"
   xmlns:sodipodi="http://sodipodi.sourceforge.net/DTD/sodipodi-0.dtd"
   xmlns="http://www.w3.org/2000/svg"
   xmlns:svg="http://www.w3.org/2000/svg">
  <defs
     id="defs1" />
  <sodipodi:namedview
     id="namedview1"
     pagecolor="#ffffff"
     bordercolor="#000000"
     borderopacity="0.25"
     inkscape:showpageshadow="2"
     inkscape:pageopacity="0.0"
     inkscape:pagecheckerboard="0"
     inkscape:deskcolor="#d1d1d1"
     inkscape:zoom="1.0988439"
     inkscape:cx="195.66018"
     inkscape:cy="306.23093"
     inkscape:window-width="1920"
     inkscape:window-height="991"
     inkscape:window-x="-9"
     inkscape:window-y="-9"
     inkscape:window-maximized="1"
     inkscape:current-layer="g1" />
  <g
     inkscape:groupmode="layer"
     inkscape:label="Image"
     id="g1">
    <path
       style="fill:#480049;fill-opacity:1"
       d="M 234.0933,486.56032 C 199.09907,483.58039 168.33403,474.96267 139.32694,460.01496 77.530175,428.17032 31.948235,371.97785 15.436195,307.28501 -8.4608654,213.65825 25.224955,117.5635 102.62483,58.564016 151.34855,21.423476 208.21272,5.0068261 272.62183,9.4859861 374.60144,16.577906 464.13823,90.473526 489.12076,188.16476 c 5.60484,21.91708 7.03872,34.05026 7.03872,59.56012 0,25.50987 -1.43388,37.64305 -7.03872,59.56013 -23.1725,90.61331 -102.0879,161.44508 -196.82082,176.65963 -12.70738,2.04087 -46.9084,3.57779 -58.20664,2.61568 z m 5.5944,-49.8473 c 0,-0.75321 -1.57343,-1.36948 -3.4965,-1.36948 -2.50687,0 -3.4965,-0.73893 -3.4965,-2.61075 0,-1.93651 0.72238,-2.42577 2.7972,-1.89449 1.5639,0.40045 2.7972,0.042 2.7972,-0.81295 0,-0.84106 -1.25874,-1.5292 -2.7972,-1.5292 -1.53846,0 -2.7972,-0.82169 -2.7972,-1.82598 0,-2.92416 1.44933,-3.56526 5.03891,-2.22892 2.5988,0.96749 3.35269,0.79386 3.35269,-0.77218 0,-1.46372 -1.6376,-2.02058 -5.94405,-2.02124 l -5.94406,-9.3e-4 0.27025,7.87543 c 0.14864,4.33149 0.30598,8.0295 0.34965,8.2178 0.25516,1.10021 9.86961,0.0996 9.86961,-1.02711 z m 30.75443,-0.6673 c 1.0142,-1.19658 1.28231,-3.03259 0.64997,-4.45081 -0.592,-1.32771 -0.93878,-3.23008 -0.77063,-4.22747 0.49853,-2.95714 -2.74046,-5.7202 -6.67916,-5.69772 -3.6658,0.0209 -9.64485,2.65477 -6.12245,2.69702 1.16264,0.0139 1.74825,2.31462 1.74825,6.86836 v 6.8474 h 4.72385 c 2.59812,0 5.5007,-0.91655 6.45017,-2.03678 z m -8.37682,-2.07166 c 0,-1.79821 0.9324,-2.73896 2.71466,-2.73896 3.49069,0 5.20934,2.69004 2.70928,4.24058 -3.21981,1.99693 -5.42394,1.38672 -5.42394,-1.50162 z m 0,-7.43172 c 0,-1.27037 1.1958,-2.15463 2.91375,-2.15463 3.40845,0 2.92667,3.20016 -0.58209,3.86648 -1.38009,0.26208 -2.33166,-0.43653 -2.33166,-1.71185 z m -52.84958,-0.78663 c 3.38677,-4.46532 4.49859,-6.84592 3.19728,-6.84592 -1.0973,0 -3.5912,2.29999 -5.54201,5.11108 l -3.54692,5.11108 v -6.39974 c 0,-3.51985 -0.62937,-6.78061 -1.3986,-7.24612 -0.76923,-0.46551 -1.41259,0.26845 -1.4297,1.63103 -0.0171,1.36258 -1.26185,4.01807 -2.7661,5.90111 l -2.73501,3.4237 -0.0311,-6.50503 c -0.0204,-4.27433 -0.63061,-6.50532 -1.77935,-6.50588 -1.23747,-6e-4 -1.60843,2.10002 -1.26967,7.18977 0.60242,9.05142 2.32331,10.99988 5.91439,6.69653 l 2.69793,-3.23304 v 4.26015 c 0,6.12088 2.69108,5.31911 8.68885,-2.58872 z m 112.78485,-0.78461 c 2.38724,-2.08053 1.01037,-9.03118 -2.38503,-12.03999 -2.02056,-1.79051 -3.30602,-1.89131 -7.61303,-0.59697 -4.65733,1.39961 -7.14265,3.83669 -3.91263,3.83669 0.69814,0 2.06033,3.02197 3.02707,6.71548 1.7048,6.51326 1.86662,6.6706 5.374,5.22518 1.98896,-0.81967 4.46828,-2.23284 5.50962,-3.14039 z m -8.26316,-2.97998 c -0.77301,-2.07134 -1.66175,-4.4854 -1.97497,-5.36458 -0.80442,-2.25793 3.42992,-3.5461 5.6707,-1.72514 2.85756,2.32218 3.79505,6.65395 1.91909,8.86729 -2.48668,2.93387 -4.04006,2.44209 -5.61482,-1.77757 z m -142.5937,-5.39801 c 2.16996,-5.1264 2.76642,-7.96856 1.74244,-8.30278 -3.42746,-1.11869 -24.89145,-14.4641 -32.30219,-20.08414 -9.31349,-7.06301 -27.44183,-24.917 -34.24233,-33.72411 -2.64361,-3.42367 -8.003925,-11.74325 -11.911815,-18.48797 -3.90789,-6.74472 -7.60269,-13.09104 -8.21067,-14.10293 -0.88779,-1.47759 -2.69494,-1.15147 -9.17916,1.65645 l -8.07373,3.49624 5.12057,9.98413 c 12.51304,24.39807 38.654445,54.46027 60.705815,69.81071 9.64094,6.71127 29.0605,17.49743 31.5608,17.52974 0.81999,0.0106 2.97561,-3.48831 4.79027,-7.77534 z m 176.30569,-2.51166 c 2.26949,-1.14917 4.12635,-2.68983 4.12635,-3.4237 0,-1.75971 -0.86144,-1.68332 -4.25746,0.37754 -3.8433,2.33229 -6.55569,-1.31388 -2.98443,-4.01187 2.10227,-1.58821 1.99855,-1.7391 -0.99555,-1.4483 -4.22789,0.41063 -5.6724,-3.01688 -1.70012,-4.03402 1.6195,-0.41469 2.94455,-1.64594 2.94455,-2.73611 0,-1.54515 -1.24048,-1.29945 -5.62695,1.11456 -3.99929,2.20092 -5.08075,3.39598 -3.7387,4.1314 1.03855,0.56909 3.03689,3.52888 4.44077,6.5773 1.40388,3.04842 2.80286,5.54258 3.10885,5.54258 0.30599,0 2.4132,-0.94022 4.68269,-2.08938 z m 25.83472,-20.16466 c -0.54752,-1.69473 -1.81462,-5.85452 -2.81579,-9.24398 -1.36236,-4.61229 -2.06854,-5.56405 -2.80706,-3.7832 -0.54271,1.30869 -0.29307,4.32792 0.55477,6.70938 2.104,5.90987 2.14231,5.87767 -3.16902,2.66343 -5.13085,-3.10501 -7.87687,-3.62138 -7.87687,-1.48117 0,0.75321 0.66276,1.36948 1.4728,1.36948 0.81004,0 3.78831,1.54066 6.61837,3.42369 6.57501,4.37482 9.364,4.49383 8.0228,0.34237 z m 23.50406,-18.58291 c 2.07777,-2.12356 3.34936,-4.28049 2.82577,-4.79318 -1.68891,-1.65375 -2.93878,-0.99941 -3.72676,1.95108 -1.14049,4.27043 -4.53685,2.37151 -4.00996,-2.242 0.38978,-3.41298 0.17854,-3.65105 -1.80752,-2.03708 -1.77393,1.44157 -2.60561,1.47325 -3.93787,0.15002 -1.32242,-1.31345 -1.10406,-2.10028 1.00613,-3.6254 1.4823,-1.07133 2.24994,-2.38376 1.70586,-2.91651 -0.54407,-0.53275 -2.58328,0.59222 -4.53157,2.49995 l -3.54235,3.46858 5.33298,5.52027 c 2.93314,3.03615 5.68725,5.6024 6.12026,5.70277 0.43301,0.10038 2.48727,-1.55495 4.56503,-3.6785 z m 18.27593,-23.65208 c 1.87043,-3.10046 2.13803,-4.63832 1.00085,-5.75182 -1.13718,-1.1135 -1.55791,-0.98893 -1.5736,0.46588 -0.0118,1.09216 -0.59252,2.86948 -1.29055,3.9496 -1.05435,1.63151 -2.24245,1.33315 -7.02057,-1.76302 -5.39254,-3.49431 -8.45067,-3.78553 -8.45067,-0.80475 0,0.70876 1.1014,1.29172 2.44755,1.29546 1.34615,0.004 4.33566,1.52224 6.64335,3.37445 2.3077,1.8522 4.53214,3.38981 4.94321,3.41689 0.41107,0.0271 1.89626,-1.85512 3.30043,-4.18269 z M 167.13418,283.67372 c 0.0956,-25.42096 0.56758,-50.42418 1.04895,-55.56271 l 0.87523,-9.34278 18.88111,42.59944 18.88111,42.59945 9.75681,-0.38916 9.7568,-0.38917 19.61381,-42.27221 19.61381,-42.27221 0.36534,55.62463 0.36534,55.62464 h 17.46682 17.46682 v -8.90162 -8.90161 h -4.7091 -4.7091 l -0.86139,-24.993 c -0.47377,-13.74614 -1.0295,-38.2427 -1.23496,-54.4368 l -0.37356,-29.4438 6.64336,-0.41741 6.64335,-0.4174 v -8.14184 -8.14184 h -22.18179 -22.18178 l -20.79349,44.42499 c -11.43642,24.43374 -21.06537,44.15876 -21.39767,43.83339 -0.3323,-0.32538 -9.27056,-20.16256 -19.8628,-44.08262 l -19.25861,-43.49102 -23.17587,-0.37548 -23.17588,-0.37549 v 8.24999 8.24999 h 6.99301 6.993 v 54.77917 54.77917 h -5.5944 -5.5944 v 8.90161 8.90162 h 16.7832 16.78321 z m 261.30073,44.24108 c 2.9538,-3.485 1.10951,-8.11068 -4.38164,-10.98964 -5.03326,-2.63889 -5.20766,-2.64172 -8.04196,-0.13012 -4.13712,3.66609 -3.72105,8.46501 0.94903,10.94581 4.92749,2.61755 9.34665,2.68454 11.47457,0.17395 z m -9.44211,-2.46015 c -4.50377,-2.12362 -3.70469,-7.3473 1.04444,-6.82762 4.36411,0.47755 8.4964,4.10628 7.5183,6.6021 -0.88584,2.26039 -4.06936,2.34424 -8.56274,0.22552 z M 69.626465,304.07733 c 3.00474,-0.80882 5.99425,-1.14919 6.64336,-0.75637 0.64911,0.39282 1.1802,-0.24655 1.1802,-1.42082 0,-2.50407 -0.56634,-2.57033 -6.86075,-0.8027 l -4.74438,1.33233 3.00537,-3.13245 c 3.96773,-4.13551 3.82325,-4.71252 -1.54009,-6.15064 l -4.54546,-1.21882 5.24476,-1.02697 c 3.0393,-0.59512 5.24475,-1.82669 5.24475,-2.92878 0,-2.33521 0.21679,-2.33838 -6.8418,0.10018 -3.18718,1.10108 -6.72785,1.65142 -7.86814,1.22296 -2.28655,-0.85917 -2.48657,-0.39514 -1.22131,2.83342 0.48132,1.22818 3.24956,2.54936 6.36311,3.03687 l 5.51115,0.86292 -4.50792,3.68502 c -3.37201,2.75646 -4.2516,4.3391 -3.49068,6.28075 0.65239,1.66468 1.36651,2.05016 1.99097,1.07471 0.53554,-0.83656 3.43213,-2.18278 6.43686,-2.99161 z M 439.6876,299.68427 c 0,-0.70876 -1.25874,-1.28865 -2.7972,-1.28865 -2.25394,0 -2.7972,-0.91299 -2.7972,-4.70089 0,-3.58089 -0.7036,-4.91956 -2.95316,-5.61867 -3.73941,-1.16214 -6.49335,1.44709 -7.68498,7.28117 -0.72463,3.54771 -0.49892,4.30246 1.10628,3.69931 1.10916,-0.41676 4.49428,0.0782 7.5225,1.09996 5.6511,1.9067 7.60376,1.78544 7.60376,-0.47223 z m -12.28513,-3.8157 c -2.20922,-1.37261 -0.73324,-5.68983 1.94526,-5.68983 1.14575,0 1.94827,1.41027 1.94827,3.4237 0,3.59014 -0.91002,4.1198 -3.89353,2.26613 z m -54.8477,-28.28624 v -8.90161 h -4.67116 -4.67115 l -0.92022,-33.89461 c -0.50612,-18.64204 -0.92158,-43.29267 -0.92325,-54.77917 l -0.003,-20.88456 h 6.993 6.99301 v -8.21688 -8.21687 h -22.74806 -22.74807 l -11.51765,24.76931 -11.51766,24.76932 v 12.20662 12.20663 h -5.62902 c -4.59527,0 -5.82105,0.56587 -6.67469,3.08133 -1.73362,5.1085 -0.33931,40.742 1.5942,40.742 0.91363,0 10.60552,-19.2583 21.53751,-42.79622 l 19.87635,-42.79623 0.0324,55.80628 0.0324,55.80628 h 17.48251 17.48251 z m 72.72788,3.16192 c -3.5e-4,-0.52058 -2.67547,-1.49024 -5.9447,-2.1548 l -5.94405,-1.20829 4.54545,-1.03533 c 2.5,-0.56944 4.54545,-1.91077 4.54545,-2.98075 0,-1.06997 -0.50908,-1.9454 -1.13128,-1.9454 -0.62221,0 -2.35298,-0.92363 -3.84616,-2.05252 -2.50262,-1.89205 -2.25017,-1.98543 3.22919,-1.19445 4.60591,0.6649 5.94405,0.42173 5.94405,-1.08017 0,-1.31603 -1.81921,-2.00928 -5.66699,-2.15953 -3.11685,-0.1217 -6.89307,-0.60232 -8.39161,-1.06803 -4.67715,-1.45356 -3.25009,3.92089 1.82085,6.85748 l 4.54545,2.63229 -5.24475,1.95725 c -3.07337,1.14694 -5.24314,2.87254 -5.24084,4.16802 0.003,1.78852 1.60598,2.21075 8.39225,2.21075 4.61359,0 8.38805,-0.42593 8.38769,-0.94652 z M 70.457025,268.31526 c 0,-0.72672 -1.25874,-1.98093 -2.7972,-2.78714 -3.2958,-1.72714 -3.6816,-5.23157 -0.6993,-6.35216 1.15384,-0.43355 2.0979,-1.6981 2.0979,-2.8101 0,-1.11201 -0.47203,-1.77393 -1.04895,-1.47095 -0.57693,0.30299 -4.36262,2.02123 -8.41267,3.81833 -4.05004,1.7971 -7.14946,3.89683 -6.88759,4.66606 0.26186,0.76923 3.89021,2.43138 8.06301,3.69366 9.36506,2.83297 9.6848,2.87398 9.6848,1.2423 z m -11.88811,-5.5261 c 0.47541,-0.75322 1.7713,-1.36948 2.87974,-1.36948 1.10845,0 2.01536,0.61626 2.01536,1.36948 0,0.75321 -1.29588,1.36948 -2.87974,1.36948 -1.58386,0 -2.49077,-0.61627 -2.01536,-1.36948 z m 169.264095,-21.61996 10.17515,-21.73592 1.18942,-27.28094 1.18942,-27.28095 5.73845,12.7526 5.73846,12.7526 1.77388,-4.19336 c 1.63615,-3.86778 2.30364,-4.19335 8.5972,-4.19335 4.5785,0 6.7911,-0.56319 6.72538,-1.71185 -0.0539,-0.94152 -4.65821,-11.88023 -10.23187,-24.30825 l -10.13393,-22.59641 -23.33454,-0.37548 -23.33455,-0.37549 v 8.17842 8.17842 l 7.34265,0.41394 7.34266,0.41394 0.3657,54.4368 c 0.32487,48.35949 0.1242,54.4368 -1.79746,54.4368 -1.75937,0 -1.87175,0.53316 -0.60204,2.85625 0.85862,1.57094 1.90307,2.52143 2.32099,2.1122 0.41793,-0.40922 5.33869,-10.52521 10.93503,-22.47997 z M 69.059075,235.74194 c -3.6e-4,-0.94383 -1.72621,-1.73126 -3.8468,-1.75512 l -3.84616,-0.0433 3.84616,-3.31473 c 2.11538,-1.82311 3.84615,-4.05608 3.84615,-4.96216 0,-1.01878 -1.04397,-0.72231 -2.73586,0.77694 -2.51865,2.2319 -2.9152,2.24875 -4.995,0.21226 -1.24253,-1.21666 -2.79861,-2.21211 -3.45795,-2.21211 -2.6527,0 -5.59418,4.55497 -5.59049,8.65706 l 0.004,4.35299 h 8.38834 c 5.77862,0 8.38814,-0.53258 8.3877,-1.71185 z m -13.73428,-4.79318 c 0.2458,-1.69473 1.39098,-3.08132 2.54482,-3.08132 1.15385,0 2.29902,1.38659 2.54483,3.08132 0.34397,2.37152 -0.24225,3.08133 -2.54483,3.08133 -2.30257,0 -2.8888,-0.70981 -2.54482,-3.08133 z m 384.792165,4.45081 c 5.68347,0 6.71702,-0.37228 6.01398,-2.16622 -0.46692,-1.19143 -0.84894,-3.65649 -0.84894,-5.47792 0,-1.82143 -0.61363,-3.31169 -1.36363,-3.31169 -0.76923,0 -0.99785,1.79086 -0.52448,4.10844 0.72179,3.53379 0.42347,4.10843 -2.13286,4.10843 -2.06802,0 -2.97203,-0.85769 -2.97203,-2.81978 0,-1.6511 -0.61918,-2.44507 -1.49395,-1.91569 -0.82167,0.49724 -1.15611,1.76615 -0.74319,2.81978 0.48653,1.24147 -0.21826,1.91569 -2.00256,1.91569 -2.00446,0 -2.7533,-0.93118 -2.7533,-3.4237 0,-1.88303 -0.62937,-3.42369 -1.3986,-3.42369 -1.62305,0 -1.75046,2.04344 -0.507,8.13128 0.62937,3.08133 1.32867,3.93725 2.37762,2.91014 0.81731,-0.80029 4.57433,-1.45507 8.34894,-1.45507 z M 428.4988,209.53188 c 0,-1.26135 9.17875,-3.56454 12.21542,-3.06517 1.03522,0.17024 1.38871,-0.5766 0.88332,-1.86622 -0.51866,-1.32345 -1.85432,-1.8711 -3.47417,-1.42449 -9.43932,2.60252 -9.22179,2.71493 -4.37982,-2.26346 5.00783,-5.14893 6.25906,-10.31119 2.0979,-8.65545 -5.39226,2.14559 -10.60204,3.30953 -11.73758,2.62234 -0.65971,-0.39923 -1.19948,0.54302 -1.19948,2.0939 0,3.37224 -0.22877,3.34582 6.19922,0.71596 4.86791,-1.99159 5.07046,-1.97251 3.79685,0.35769 -0.73996,1.35383 -2.66241,3.6286 -4.27212,5.05503 -3.01481,2.67156 -4.00908,7.64694 -1.52815,7.64694 0.76923,0 1.39861,-0.54769 1.39861,-1.21707 z M 59.673465,203.90155 c -0.86345,-3.23309 0.86639,-3.3962 8.33601,-0.78601 2.88461,1.00801 5.24475,1.64762 5.24475,1.42138 0,-0.22625 0.42395,-1.49315 0.94211,-2.81534 0.71371,-1.82118 0.39994,-2.20026 -1.29427,-1.56367 -2.55034,0.95828 -12.23525,-1.33267 -12.23525,-2.89423 0,-0.56717 0.75525,-1.77073 1.67832,-2.67459 1.30536,-1.27818 1.16457,-1.64338 -0.63356,-1.64338 -1.48016,0 -2.83588,1.84755 -3.76842,5.13555 -1.94541,6.85922 -1.84712,8.55925 0.49483,8.55925 1.27839,0 1.71089,-0.95883 1.23548,-2.73896 z m 20.77008,-26.47323 c -2.14814,-2.53445 -0.57815,-6.39427 2.60088,-6.39427 1.37387,0 2.8104,-0.79732 3.1923,-1.77182 0.51214,-1.30681 -1.48563,-1.85611 -7.6121,-2.09302 -4.56856,-0.17667 -8.93884,0.0615 -9.71174,0.52921 -0.78222,0.47338 1.26385,3.7207 4.61488,7.32427 3.31109,3.56062 6.59139,5.99471 7.28956,5.40908 0.74538,-0.62522 0.59108,-1.86507 -0.37378,-3.00345 z m -5.79072,-5.70953 c -1.45324,-1.71459 -1.25758,-2.05422 1.18346,-2.05422 2.025,0 2.67693,0.63185 2.11951,2.05422 -0.44277,1.12982 -0.97532,2.05422 -1.18345,2.05422 -0.20813,0 -1.16191,-0.9244 -2.11952,-2.05422 z m 345.454365,8.02548 c 0,-0.48188 -1.1014,-1.67422 -2.44755,-2.64965 -2.22049,-1.60898 -1.96515,-1.97237 2.75228,-3.91704 2.85991,-1.17895 6.10518,-2.14353 7.21172,-2.14353 1.32331,0 1.76153,-0.93742 1.2804,-2.73896 -0.70511,-2.64019 -3.20245,-3.90594 -3.20245,-1.62313 0,0.96971 -8.75424,5.73157 -10.53695,5.73157 -0.35852,0 -0.65185,-1.23254 -0.65185,-2.73896 0,-2.67433 -1.48403,-3.5683 -3.17495,-1.91259 -1.32711,1.29948 4.9212,12.86842 6.95014,12.86842 1.00057,0 1.81921,-0.39426 1.81921,-0.87613 z m -7.08593,-33.56555 c 3.89726,-2.37223 7.08593,-4.68343 7.08593,-5.13601 0,-0.45257 -4.08887,-6.15754 -9.08639,-12.67769 -16.75923,-21.86543 -42.93791,-43.021574 -69.23525,-55.952054 -13.91558,-6.84233 -30.88085,-12.76923 -32.31174,-11.28827 -0.55039,0.56966 -1.97673,4.29995 -3.16963,8.28953 -1.65102,5.52174 -1.76483,7.38978 -0.47663,7.82336 10.04812,3.38199 21.36977,7.86019 27.61594,10.9233 22.30739,10.9395 49.65719,33.422204 64.48916,53.012834 3.88009,5.12498 7.268,9.31814 7.52869,9.31814 0.26069,0 3.66265,-1.94092 7.55992,-4.31314 z M 108.21923,134.47541 c 0,-0.52369 -1.67775,-2.6669 -3.72833,-4.76268 l -3.72833,-3.81051 4.32236,1.21382 c 2.37729,0.66761 4.63085,0.91175 5.0079,0.54255 0.37705,-0.3692 -0.26731,-2.93201 -1.43191,-5.69512 l -2.11745,-5.02385 4.06126,3.76606 c 3.88382,3.60152 7.4383,4.92163 7.37485,2.73896 -0.0164,-0.56491 -2.53391,-2.7618 -5.59441,-4.88199 -3.06049,-2.12019 -5.56454,-4.50664 -5.56454,-5.30323 0,-0.91565 -0.75806,-0.83232 -2.06107,0.22657 -1.81295,1.47329 -1.80053,2.16823 0.10313,5.77286 2.65837,5.03369 1.90791,5.94117 -3.4116,4.12539 -2.908515,-0.99281 -4.568435,-0.95895 -5.665785,0.11555 -2.05813,2.01527 -1.96854,3.71055 0.19618,3.71246 0.96154,8.5e-4 3.63636,1.81442 5.944045,4.03016 4.14636,3.98115 6.2937,5.08422 6.2937,3.233 z m 29.68729,-28.95594 c 1.32801,-1.07578 2.0483,-2.53625 1.60064,-3.2455 -0.44766,-0.70925 -2.06056,0.0207 -3.58422,1.6221 -2.21222,2.3251 -3.17571,2.58219 -4.78278,1.27621 -1.73914,-1.4133 -1.69331,-1.98078 0.33747,-4.17803 2.43059,-2.629864 0.80697,-3.647434 -1.77922,-1.115084 -1.01143,0.990374 -1.98623,0.804154 -3.18324,-0.60813 -1.41045,-1.66411 -1.19543,-2.3597 1.17816,-3.81116 2.85959,-1.74866 3.90465,-3.89693 1.85456,-3.81235 -0.57692,0.0238 -2.74959,1.50954 -4.82816,3.30163 l -3.77922,3.25836 4.82817,5.012754 c 2.65549,2.75701 4.82816,5.6606 4.82816,6.45241 0,1.38607 1.57942,0.48868 7.30968,-4.15321 z m 19.96304,-13.915224 c 0.47541,-0.75321 0.2652,-1.36948 -0.46713,-1.36948 -0.73233,0 -1.7151,-0.97882 -2.18395,-2.17517 -0.7241,-1.84769 0.043,-2.0536 5.09512,-1.36766 5.08802,0.69081 5.49278,0.57909 2.80071,-0.77306 -1.83671,-0.92253 -3.14685,-2.84904 -3.14685,-4.62731 0,-1.67571 -0.99233,-3.85315 -2.20517,-4.83876 -1.83858,-1.49411 -3.00112,-1.37231 -6.99301,0.7327 -5.17142,2.72701 -5.9119,4.11698 -2.81347,5.28121 1.0859,0.40802 2.78575,2.93901 3.77746,5.62443 1.75831,4.76128 4.3955,6.2711 6.13629,3.5131 z m -6.1734,-9.36624 c -1.14273,-2.09075 -0.98354,-2.86719 0.719,-3.50692 3.83131,-1.43959 4.96133,-0.89941 4.50272,2.15243 -0.59562,3.9636 -3.39832,4.6906 -5.22172,1.35449 z m 36.33526,-4.37673 c 1.48789,-0.77972 2.70525,-2.01747 2.70525,-2.75057 0,-0.76986 -1.10332,-0.6582 -2.61193,0.26432 -3.76568,2.30274 -6.76823,0.63264 -7.89519,-4.39151 -1.02526,-4.57079 1.0633,-7.36863 4.56307,-6.11271 0.96154,0.34506 1.74825,-0.31921 1.74825,-1.47615 0,-1.54834 -0.83055,-1.8542 -3.14685,-1.15889 -7.04207,2.11392 -8.31767,5.79196 -4.50954,13.00274 2.24985,4.26012 4.68824,4.9593 9.14694,2.62277 z m 24.42958,-9.1958 c -1.71504,-4.31493 -1.48474,-5.06453 1.70224,-5.54066 3.00608,-0.4491 3.79794,0.73358 3.25125,4.85592 -0.22459,1.69352 2.92597,2.39652 4.3762,0.97648 0.41305,-0.40445 -0.14165,-3.27234 -1.23266,-6.3731 -1.09102,-3.10076 -1.65851,-6.46744 -1.2611,-7.48151 0.45483,-1.16059 -0.29763,-1.84378 -2.03074,-1.84378 -3.13542,0 -3.31045,0.53018 -1.35576,4.10651 1.12719,2.06231 0.82284,2.73558 -1.57321,3.48022 -3.25266,1.01086 -5.63309,-1.33784 -4.4404,-4.38121 0.39634,-1.01135 -0.18529,-1.83604 -1.2949,-1.83604 -2.94945,0 -4.05698,1.56387 -2.45015,3.45967 0.77265,0.9116 1.5539,4.2005 1.73611,7.30867 0.26227,4.47367 0.87248,5.6527 2.92849,5.65832 1.90506,0.005 2.34334,-0.63158 1.64463,-2.38949 z m 74.32582,-5.21534 c 0.13531,-3.43331 0.99908,-7.13089 1.91951,-8.21685 1.37915,-1.62718 1.07779,-1.97446 -1.71342,-1.97446 -3.04721,0 -3.32959,0.48075 -2.81543,4.79318 0.74336,6.23483 -1.83124,6.22795 -3.9339,-0.0105 -0.89049,-2.64203 -2.72657,-5.38406 -4.08018,-6.09341 -2.17101,-1.13769 -2.48988,-0.54486 -2.70521,5.02935 -0.13425,3.47549 -0.88053,7.06995 -1.65838,7.9877 -0.99122,1.16948 -0.79652,1.90075 0.65088,2.4446 1.52487,0.57297 2.37944,-0.72877 3.26644,-4.97561 l 1.20128,-5.75159 2.98431,6.50502 c 3.85083,8.39381 6.5596,8.49713 6.8841,0.26258 z m -43.79615,1.44927 c 0.44277,-1.12982 2.10329,-2.05422 3.69003,-2.05422 1.58675,0 3.24726,0.9244 3.69003,2.05422 0.89489,2.28349 4.70158,2.83789 4.70158,0.68474 0,-0.75322 -0.48165,-1.36948 -1.07033,-1.36948 -0.58867,0 -2.18798,-3.08133 -3.55401,-6.8474 -1.36603,-3.76607 -3.32716,-6.84739 -4.35805,-6.84739 -1.06815,0 -2.59185,2.79013 -3.54248,6.48681 -0.91747,3.56775 -2.32799,7.26534 -3.13449,8.21688 -1.07161,1.26432 -0.89577,1.73006 0.65316,1.73006 1.16574,0 2.48179,-0.9244 2.92456,-2.05422 z m 2.31285,-7.87451 c 0.0173,-2.49168 0.28086,-2.68823 1.37718,-1.02711 1.75234,2.65509 1.75234,4.10844 0,4.10844 -0.76923,0 -1.38896,-1.3866 -1.37718,-3.08133 z m 2.07648,-9.24398 c 0.47541,-0.75322 0.19787,-1.36948 -0.61676,-1.36948 -0.81462,0 -1.48114,0.61626 -1.48114,1.36948 0,0.75321 0.27754,1.36948 0.61676,1.36948 0.33922,0 1.00573,-0.61627 1.48114,-1.36948 z"
       id="path1" />
  </g>
</svg>
